<svg xmlns="http://www.w3.org/2000/svg" viewBox="0 0 250 250"><title>RALF_IconSVGs</title><g id="Body"><path d="M125.75,209.84a.87.87,0,0,1-.88-.88V76.69a.89.89,0,1,1,1.77,0V209A.88.88,0,0,1,125.75,209.84Z" style="fill:#fff"/><path d="M129,188.45a.9.9,0,0,1-.63-.27.87.87,0,0,1-.21-.87L131,178a1.07,1.07,0,0,1,.22-.37L143,165.87a.91.91,0,0,1,.41-.24l8.64-2.16a.89.89,0,0,1,1.07,1.07l-2,8.29a.89.89,0,0,1-.24.42l-12.43,12.43a.86.86,0,0,1-.39.23l-8.81,2.5A.67.67,0,0,1,129,188.45Zm3.59-9.7-2.27,7.52,7-2,12.1-12.1,1.58-6.63-7,1.75Z" style="fill:#fff"/><path d="M135,182.47a.91.91,0,0,1-.63-.26.89.89,0,0,1,0-1.25L146,169.33a.88.88,0,0,1,1.25,0,.89.89,0,0,1,0,1.25L135.6,182.21A.87.87,0,0,1,135,182.47Z" style="fill:#fff"/><path d="M129,170.13a.9.9,0,0,1-.63-.27.87.87,0,0,1-.21-.87l2.8-9.29a1.07,1.07,0,0,1,.22-.37L143,147.55a.91.91,0,0,1,.41-.24l8.64-2.15a.87.87,0,0,1,.83.22.9.9,0,0,1,.24.84l-2,8.29a.89.89,0,0,1-.24.42l-12.43,12.43a.86.86,0,0,1-.39.23l-8.81,2.5A.67.67,0,0,1,129,170.13Zm3.59-9.7L130.33,168l7-2,12.1-12.1,1.58-6.63-7,1.75Z" style="fill:#fff"/><path d="M135,164.15a.87.87,0,0,1-.63-.26.89.89,0,0,1,0-1.25L146,151a.88.88,0,0,1,1.25,0,.89.89,0,0,1,0,1.25L135.6,163.89A.83.83,0,0,1,135,164.15Z" style="fill:#fff"/><path d="M129,151.81a.88.88,0,0,1-.84-1.14l2.8-9.29a1,1,0,0,1,.22-.36L143,129.23a.91.91,0,0,1,.41-.24l8.64-2.15a.85.85,0,0,1,.83.23.88.88,0,0,1,.24.83l-2,8.29a.89.89,0,0,1-.24.42L138.45,149a.86.86,0,0,1-.39.23l-8.81,2.5A.67.67,0,0,1,129,151.81Zm3.59-9.7-2.27,7.52,7-2,12.1-12.09L151,128.9l-7,1.75Z" style="fill:#fff"/><path d="M135,145.83a.87.87,0,0,1-.63-.26.89.89,0,0,1,0-1.25L146,132.69a.88.88,0,0,1,1.25,0,.89.89,0,0,1,0,1.25L135.6,145.57A.83.83,0,0,1,135,145.83Z" style="fill:#fff"/><path d="M129,133.49a.88.88,0,0,1-.84-1.14l2.8-9.28a1,1,0,0,1,.22-.37L143,110.91a.81.81,0,0,1,.41-.23l8.64-2.16a.85.85,0,0,1,.83.23.88.88,0,0,1,.24.83l-2,8.29a.89.89,0,0,1-.24.42l-12.43,12.44a.94.94,0,0,1-.39.22l-8.81,2.5A.67.67,0,0,1,129,133.49Zm3.59-9.7-2.27,7.52,7-2,12.1-12.09,1.58-6.64-7,1.75Z" style="fill:#fff"/><path d="M135,127.51a.87.87,0,0,1-.63-.26.89.89,0,0,1,0-1.25L146,114.37a.88.88,0,0,1,1.25,1.25L135.6,127.25A.83.83,0,0,1,135,127.51Z" style="fill:#fff"/><path d="M129,115.17a.87.87,0,0,1-.84-1.14l2.8-9.28a1,1,0,0,1,.22-.37L143,92.59a1,1,0,0,1,.41-.23L152,90.2a.85.85,0,0,1,.83.23.88.88,0,0,1,.24.83l-2,8.29a.89.89,0,0,1-.24.42l-12.43,12.44a.94.94,0,0,1-.39.22l-8.81,2.51A1,1,0,0,1,129,115.17Zm3.59-9.7L130.33,113l7-2,12.1-12.09L151,92.27l-7,1.74Z" style="fill:#fff"/><path d="M135,109.19a.88.88,0,0,1-.63-1.5L146,96.05a.88.88,0,0,1,1.25,1.25L135.6,108.94A.86.86,0,0,1,135,109.19Z" style="fill:#fff"/><path d="M129,96.85a.87.87,0,0,1-.84-1.14l2.8-9.28a1,1,0,0,1,.22-.37L143,74.27a1,1,0,0,1,.41-.23L152,71.88a.85.85,0,0,1,.83.23.88.88,0,0,1,.24.83l-2,8.29a.85.85,0,0,1-.24.42L138.45,94.09a.94.94,0,0,1-.39.22l-8.81,2.51A1,1,0,0,1,129,96.85Zm3.59-9.7-2.27,7.52,7-2,12.1-12.09L151,74l-7,1.74Z" style="fill:#fff"/><path d="M135,90.87a.88.88,0,0,1-.63-1.5L146,77.73A.88.88,0,0,1,147.24,79L135.6,90.62A.86.86,0,0,1,135,90.87Z" style="fill:#fff"/><path d="M129,78.53a.87.87,0,0,1-.84-1.14l2.8-9.28a1,1,0,0,1,.22-.37L143,56a1,1,0,0,1,.41-.23L152,53.56a.85.85,0,0,1,.83.23.88.88,0,0,1,.24.83l-2,8.29a.85.85,0,0,1-.24.42L138.45,75.77a.94.94,0,0,1-.39.22l-8.81,2.51A1,1,0,0,1,129,78.53Zm3.59-9.7-2.27,7.52,7-2,12.1-12.09L151,55.63l-7,1.74Z" style="fill:#fff"/><path d="M135,72.56a.91.91,0,0,1-.63-.26.89.89,0,0,1,0-1.25L146,59.41a.88.88,0,0,1,1.25,1.25L135.6,72.3A.87.87,0,0,1,135,72.56Z" style="fill:#fff"/><path d="M125.52,70.2h0a.87.87,0,0,1-.77-.47l-4.58-8.55a.83.83,0,0,1-.1-.41V44.1a.93.93,0,0,1,.12-.46L124.76,36a.88.88,0,0,1,1.51,0l4.46,7.27a.84.84,0,0,1,.13.46V61.32a.92.92,0,0,1-.11.43l-4.46,8A.87.87,0,0,1,125.52,70.2Zm-3.7-9.65,3.72,6.92,3.55-6.38V44l-3.56-5.81-3.71,6.17Z" style="fill:#fff"/><path d="M125.51,61.76a.89.89,0,0,1-.88-.89V44.42a.89.89,0,1,1,1.77,0V60.87A.89.89,0,0,1,125.51,61.76Z" style="fill:#fff"/><path d="M122.49,188.45a.67.67,0,0,1-.24,0l-8.81-2.5a.78.78,0,0,1-.38-.23l-12.44-12.43a.87.87,0,0,1-.23-.42l-2-8.29a.89.89,0,0,1,1.07-1.07l8.64,2.16a.82.82,0,0,1,.41.24l11.79,11.78a.94.94,0,0,1,.22.37l2.81,9.29a.88.88,0,0,1-.22.87A.9.9,0,0,1,122.49,188.45Zm-8.35-4.18,7,2-2.28-7.52-11.46-11.46-7-1.75,1.59,6.63Z" style="fill:#fff"/><path d="M116.52,182.47a.89.89,0,0,1-.62-.26l-11.64-11.63a.89.89,0,0,1,0-1.25.88.88,0,0,1,1.25,0L117.15,181a.89.89,0,0,1-.63,1.51Z" style="fill:#fff"/><path d="M122.49,170.13a.67.67,0,0,1-.24,0l-8.81-2.5a.78.78,0,0,1-.38-.23l-12.44-12.43a.87.87,0,0,1-.23-.42l-2-8.29a.9.9,0,0,1,.24-.84.87.87,0,0,1,.83-.22l8.64,2.15a.82.82,0,0,1,.41.24l11.79,11.78a.94.94,0,0,1,.22.37l2.81,9.29a.88.88,0,0,1-.22.87A.9.9,0,0,1,122.49,170.13ZM114.14,166l7,2-2.28-7.52L107.44,149l-7-1.75,1.59,6.63Z" style="fill:#fff"/><path d="M116.52,164.15a.85.85,0,0,1-.62-.26l-11.64-11.63a.89.89,0,0,1,0-1.25.88.88,0,0,1,1.25,0l11.64,11.63a.89.89,0,0,1,0,1.25A.85.85,0,0,1,116.52,164.15Z" style="fill:#fff"/><path d="M122.49,151.81a.67.67,0,0,1-.24,0l-8.81-2.5a.78.78,0,0,1-.38-.23l-12.44-12.43a.87.87,0,0,1-.23-.42l-2-8.29a.88.88,0,0,1,.24-.83.85.85,0,0,1,.83-.23l8.64,2.15a.82.82,0,0,1,.41.24L120.31,141a.9.9,0,0,1,.22.36l2.81,9.29a.88.88,0,0,1-.22.87A.86.86,0,0,1,122.49,151.81Zm-8.35-4.18,7,2-2.28-7.52-11.46-11.46-7-1.75,1.59,6.64Z" style="fill:#fff"/><path d="M116.52,145.83a.85.85,0,0,1-.62-.26l-11.64-11.63a.89.89,0,0,1,0-1.25.88.88,0,0,1,1.25,0l11.64,11.63a.89.89,0,0,1,0,1.25A.85.85,0,0,1,116.52,145.83Z" style="fill:#fff"/><path d="M122.49,133.49a.67.67,0,0,1-.24,0l-8.81-2.5a.85.85,0,0,1-.38-.22l-12.44-12.44a.87.87,0,0,1-.23-.42l-2-8.29a.88.88,0,0,1,.24-.83.85.85,0,0,1,.83-.23l8.64,2.16a.73.73,0,0,1,.41.23l11.79,11.79a.87.87,0,0,1,.22.37l2.81,9.28a.88.88,0,0,1-.22.87A.86.86,0,0,1,122.49,133.49Zm-8.35-4.18,7,2-2.28-7.52-11.46-11.46-7-1.75,1.59,6.64Z" style="fill:#fff"/><path d="M116.52,127.51a.85.85,0,0,1-.62-.26l-11.64-11.63a.88.88,0,0,1,1.25-1.25L117.15,126a.89.89,0,0,1,0,1.25A.85.85,0,0,1,116.52,127.51Z" style="fill:#fff"/><path d="M122.49,115.17a1,1,0,0,1-.24,0l-8.81-2.51a.85.85,0,0,1-.38-.22L100.62,100a.87.87,0,0,1-.23-.42l-2-8.29a.88.88,0,0,1,.24-.83.85.85,0,0,1,.83-.23l8.64,2.16a.88.88,0,0,1,.41.23l11.79,11.79a.87.87,0,0,1,.22.37l2.81,9.28a.88.88,0,0,1-.85,1.14ZM114.14,111l7,2-2.28-7.52L107.44,94l-7-1.74,1.59,6.63Z" style="fill:#fff"/><path d="M116.52,109.19a.88.88,0,0,1-.62-.25L104.26,97.3a.88.88,0,0,1,1.25-1.25l11.64,11.64a.89.89,0,0,1,0,1.25A.88.88,0,0,1,116.52,109.19Z" style="fill:#fff"/><path d="M122.49,96.85a1,1,0,0,1-.24,0l-8.81-2.51a.85.85,0,0,1-.38-.22L100.62,81.65a.83.83,0,0,1-.23-.42l-2-8.29a.88.88,0,0,1,.24-.83.85.85,0,0,1,.83-.23L108.11,74a.88.88,0,0,1,.41.23l11.79,11.79a.87.87,0,0,1,.22.37l2.81,9.28a.88.88,0,0,1-.85,1.14Zm-8.35-4.18,7,2-2.28-7.52L107.44,75.69l-7-1.74,1.59,6.63Z" style="fill:#fff"/><path d="M116.52,90.87a.88.88,0,0,1-.62-.25L104.26,79a.88.88,0,0,1,1.25-1.25l11.64,11.64a.89.89,0,0,1,0,1.25A.88.88,0,0,1,116.52,90.87Z" style="fill:#fff"/><path d="M122.49,78.53a1,1,0,0,1-.24,0L113.44,76a.85.85,0,0,1-.38-.22L100.62,63.33a.83.83,0,0,1-.23-.42l-2-8.29a.88.88,0,0,1,.24-.83.85.85,0,0,1,.83-.23l8.64,2.16a.88.88,0,0,1,.41.23l11.79,11.79a.87.87,0,0,1,.22.37l2.81,9.28a.88.88,0,0,1-.85,1.14Zm-8.35-4.18,7,2-2.28-7.52L107.44,57.37l-7-1.74,1.59,6.63Z" style="fill:#fff"/><path d="M116.52,72.56a.89.89,0,0,1-.62-.26L104.26,60.66a.88.88,0,0,1,1.25-1.25l11.64,11.64a.89.89,0,0,1-.63,1.51Z" style="fill:#fff"/><path d="M70.25,190.27a.64.64,0,0,1-.64-.63v-95a.64.64,0,0,1,.64-.63.63.63,0,0,1,.63.63v95A.63.63,0,0,1,70.25,190.27Z" style="fill:#fff"/><path d="M72.59,174.9a.64.64,0,0,1-.61-.81l2-6.67a.63.63,0,0,1,.16-.27l8.46-8.46a.6.6,0,0,1,.3-.17l6.2-1.55a.63.63,0,0,1,.6.16.64.64,0,0,1,.17.6l-1.42,6a.75.75,0,0,1-.17.3l-8.94,8.93a.57.57,0,0,1-.27.16l-6.33,1.8A.47.47,0,0,1,72.59,174.9Zm2.58-7-1.64,5.4,5-1.43,8.69-8.69,1.14-4.77-5,1.26Z" style="fill:#fff"/><path d="M76.88,170.61a.63.63,0,0,1-.45-.18.63.63,0,0,1,0-.9l8.35-8.36a.64.64,0,0,1,.9.9l-8.36,8.36A.62.62,0,0,1,76.88,170.61Z" style="fill:#fff"/><path d="M72.59,161.75a.64.64,0,0,1-.45-.19.62.62,0,0,1-.16-.63l2-6.67a.54.54,0,0,1,.16-.26l8.46-8.47a.69.69,0,0,1,.3-.17l6.2-1.55a.63.63,0,0,1,.6.17.62.62,0,0,1,.17.59l-1.42,6a.69.69,0,0,1-.17.3l-8.94,8.93a.57.57,0,0,1-.27.16l-6.33,1.8A.47.47,0,0,1,72.59,161.75Zm2.58-7-1.64,5.4,5-1.43,8.69-8.69,1.14-4.76-5,1.25Z" style="fill:#fff"/><path d="M76.88,157.46a.64.64,0,0,1-.45-1.09L84.78,148a.65.65,0,0,1,.9,0,.63.63,0,0,1,0,.9l-8.36,8.36A.63.63,0,0,1,76.88,157.46Z" style="fill:#fff"/><path d="M72.59,148.59a.64.64,0,0,1-.45-.19.62.62,0,0,1-.16-.63l2-6.67a.54.54,0,0,1,.16-.26l8.46-8.47a.69.69,0,0,1,.3-.17l6.2-1.55a.63.63,0,0,1,.6.17.63.63,0,0,1,.17.6l-1.42,6a.69.69,0,0,1-.17.3l-8.94,8.93a.59.59,0,0,1-.27.17l-6.33,1.79A.47.47,0,0,1,72.59,148.59Zm2.58-7L73.53,147l5-1.44,8.69-8.69,1.14-4.76-5,1.25Z" style="fill:#fff"/><path d="M76.88,144.3a.6.6,0,0,1-.45-.19.63.63,0,0,1,0-.9l8.35-8.35a.63.63,0,0,1,.9,0,.62.62,0,0,1,0,.89l-8.36,8.36A.59.59,0,0,1,76.88,144.3Z" style="fill:#fff"/><path d="M72.59,135.43a.64.64,0,0,1-.45-.19.62.62,0,0,1-.16-.63l2-6.67a.54.54,0,0,1,.16-.26l8.46-8.47a.59.59,0,0,1,.3-.16l6.2-1.56a.64.64,0,0,1,.77.77l-1.42,5.95a.64.64,0,0,1-.17.3l-8.94,8.94a.67.67,0,0,1-.27.16l-6.33,1.8Zm2.58-7-1.64,5.41,5-1.44,8.69-8.69L88.41,119l-5,1.25Z" style="fill:#fff"/><path d="M76.88,131.14a.6.6,0,0,1-.45-.19.62.62,0,0,1,0-.89l8.35-8.36a.64.64,0,0,1,.9.9L77.32,131A.59.59,0,0,1,76.88,131.14Z" style="fill:#fff"/><path d="M72.59,122.27a.6.6,0,0,1-.45-.19.61.61,0,0,1-.16-.63l2-6.66a.63.63,0,0,1,.16-.27l8.46-8.47a.67.67,0,0,1,.3-.16l6.2-1.55a.63.63,0,0,1,.77.76l-1.42,6a.75.75,0,0,1-.17.3l-8.94,8.93a.67.67,0,0,1-.27.16l-6.33,1.8Zm2.58-7-1.64,5.4,5-1.44,8.69-8.69,1.14-4.76-5,1.26Z" style="fill:#fff"/><path d="M76.88,118a.63.63,0,0,1-.45-.18.63.63,0,0,1,0-.9l8.35-8.36a.64.64,0,0,1,.9.9l-8.36,8.36A.62.62,0,0,1,76.88,118Z" style="fill:#fff"/><path d="M72.59,109.11a.63.63,0,0,1-.61-.81l2-6.67a.63.63,0,0,1,.16-.27l8.46-8.46a.6.6,0,0,1,.3-.17l6.2-1.55a.63.63,0,0,1,.6.16.64.64,0,0,1,.17.6l-1.42,6a.69.69,0,0,1-.17.3l-8.94,8.93a.57.57,0,0,1-.27.16l-6.33,1.8A.47.47,0,0,1,72.59,109.11Zm2.58-7-1.64,5.4,5-1.43,8.69-8.69,1.14-4.77-5,1.26Z" style="fill:#fff"/><path d="M76.88,104.82a.63.63,0,0,1-.45-.18.63.63,0,0,1,0-.9l8.35-8.36a.65.65,0,0,1,.9,0,.63.63,0,0,1,0,.9l-8.36,8.36A.62.62,0,0,1,76.88,104.82Z" style="fill:#fff"/><path d="M72.59,96a.64.64,0,0,1-.45-.19.62.62,0,0,1-.16-.63l2-6.67a.54.54,0,0,1,.16-.26l8.46-8.47a.69.69,0,0,1,.3-.17L89.12,78a.63.63,0,0,1,.6.17.62.62,0,0,1,.17.59l-1.42,6a.69.69,0,0,1-.17.3L79.36,94a.57.57,0,0,1-.27.16l-6.33,1.8A.47.47,0,0,1,72.59,96Zm2.58-7-1.64,5.4,5-1.43,8.69-8.69,1.14-4.76-5,1.25Z" style="fill:#fff"/><path d="M76.88,91.67a.64.64,0,0,1-.45-1.09l8.35-8.35a.63.63,0,0,1,.9,0,.62.62,0,0,1,0,.89l-8.36,8.36A.63.63,0,0,1,76.88,91.67Z" style="fill:#fff"/><path d="M70.08,90h0a.64.64,0,0,1-.56-.33L66.23,83.5a.63.63,0,0,1-.07-.3v-12a.62.62,0,0,1,.09-.32l3.29-5.49a.64.64,0,0,1,1.08,0l3.2,5.22a.64.64,0,0,1,.1.33V83.59a.65.65,0,0,1-.08.31l-3.2,5.75A.65.65,0,0,1,70.08,90ZM67.43,83l2.66,5,2.56-4.58V71.14L70.09,67,67.43,71.4Z" style="fill:#fff"/><path d="M70.08,83.91a.64.64,0,0,1-.64-.64V71.46a.64.64,0,0,1,.64-.64.63.63,0,0,1,.63.64V83.27A.64.64,0,0,1,70.08,83.91Z" style="fill:#fff"/><path d="M67.9,174.9a.52.52,0,0,1-.17,0l-6.33-1.8a.63.63,0,0,1-.27-.16L52.2,164a.65.65,0,0,1-.17-.3l-1.43-6a.63.63,0,0,1,.77-.76l6.21,1.55a.58.58,0,0,1,.29.17l8.47,8.46a.74.74,0,0,1,.16.27l2,6.67a.63.63,0,0,1-.61.81Zm-6-3,5,1.43-1.63-5.4-8.23-8.23-5-1.26,1.14,4.77Z" style="fill:#fff"/><path d="M63.62,170.61a.64.64,0,0,1-.45-.18l-8.36-8.36a.65.65,0,0,1,0-.9.63.63,0,0,1,.9,0l8.36,8.36a.63.63,0,0,1,0,.9A.66.66,0,0,1,63.62,170.61Z" style="fill:#fff"/><path d="M67.9,161.75l-.17,0-6.33-1.8a.63.63,0,0,1-.27-.16l-8.93-8.93a.6.6,0,0,1-.17-.3l-1.43-6a.62.62,0,0,1,.17-.59.64.64,0,0,1,.6-.17l6.21,1.55a.66.66,0,0,1,.29.17L66.34,154a.63.63,0,0,1,.16.26l2,6.67a.64.64,0,0,1-.15.63A.66.66,0,0,1,67.9,161.75Zm-6-3,5,1.43-1.63-5.4-8.23-8.23-5-1.25,1.14,4.76Z" style="fill:#fff"/><path d="M63.62,157.46a.65.65,0,0,1-.45-.19l-8.36-8.36a.64.64,0,1,1,.9-.9l8.36,8.36a.63.63,0,0,1,0,.9A.67.67,0,0,1,63.62,157.46Z" style="fill:#fff"/><path d="M67.9,148.59l-.17,0-6.33-1.79a.65.65,0,0,1-.27-.17l-8.93-8.93a.6.6,0,0,1-.17-.3l-1.43-6a.63.63,0,0,1,.17-.6.64.64,0,0,1,.6-.17l6.21,1.55a.66.66,0,0,1,.29.17l8.47,8.47a.63.63,0,0,1,.16.26l2,6.67a.64.64,0,0,1-.15.63A.66.66,0,0,1,67.9,148.59Zm-6-3L67,147l-1.63-5.41-8.23-8.23-5-1.25,1.14,4.76Z" style="fill:#fff"/><path d="M63.62,144.3a.61.61,0,0,1-.45-.19l-8.36-8.36a.63.63,0,0,1,.9-.89l8.36,8.35a.64.64,0,0,1-.45,1.09Z" style="fill:#fff"/><path d="M67.9,135.43l-.17,0-6.33-1.8a.74.74,0,0,1-.27-.16l-8.93-8.94a.56.56,0,0,1-.17-.3l-1.43-5.95a.63.63,0,0,1,.17-.6.64.64,0,0,1,.6-.17l6.21,1.56a.56.56,0,0,1,.29.16l8.47,8.47a.63.63,0,0,1,.16.26l2,6.67a.63.63,0,0,1-.15.63A.66.66,0,0,1,67.9,135.43Zm-6-3,5,1.44-1.63-5.41-8.23-8.23-5-1.25,1.14,4.76Z" style="fill:#fff"/><path d="M63.62,131.14a.61.61,0,0,1-.45-.19l-8.36-8.35a.65.65,0,0,1,0-.9.63.63,0,0,1,.9,0l8.36,8.36a.62.62,0,0,1,0,.89A.63.63,0,0,1,63.62,131.14Z" style="fill:#fff"/><path d="M67.9,122.27l-.17,0-6.33-1.8a.74.74,0,0,1-.27-.16l-8.93-8.93a.65.65,0,0,1-.17-.3l-1.43-6a.63.63,0,0,1,.77-.76l6.21,1.55a.64.64,0,0,1,.29.16l8.47,8.47a.74.74,0,0,1,.16.27l2,6.66a.63.63,0,0,1-.15.63A.62.62,0,0,1,67.9,122.27Zm-6-3,5,1.44-1.63-5.4-8.23-8.23-5-1.26,1.14,4.76Z" style="fill:#fff"/><path d="M63.62,118a.64.64,0,0,1-.45-.18l-8.36-8.36a.65.65,0,0,1,0-.9.63.63,0,0,1,.9,0l8.36,8.36a.63.63,0,0,1,0,.9A.66.66,0,0,1,63.62,118Z" style="fill:#fff"/><path d="M67.9,109.11a.52.52,0,0,1-.17,0l-6.33-1.8a.63.63,0,0,1-.27-.16L52.2,98.2a.6.6,0,0,1-.17-.3l-1.43-6a.63.63,0,0,1,.77-.76l6.21,1.55a.58.58,0,0,1,.29.17l8.47,8.46a.74.74,0,0,1,.16.27l2,6.67a.64.64,0,0,1-.15.63A.65.65,0,0,1,67.9,109.11Zm-6-3,5,1.43-1.63-5.4L57.1,93.92l-5-1.26,1.14,4.77Z" style="fill:#fff"/><path d="M63.62,104.82a.64.64,0,0,1-.45-.18l-8.36-8.36a.64.64,0,0,1,.9-.9l8.36,8.36a.63.63,0,0,1,0,.9A.66.66,0,0,1,63.62,104.82Z" style="fill:#fff"/><path d="M67.9,96l-.17,0-6.33-1.8a.63.63,0,0,1-.27-.16L52.2,85a.6.6,0,0,1-.17-.3l-1.43-6a.62.62,0,0,1,.17-.59.64.64,0,0,1,.6-.17l6.21,1.55a.66.66,0,0,1,.29.17l8.47,8.47a.63.63,0,0,1,.16.26l2,6.67a.64.64,0,0,1-.15.63A.66.66,0,0,1,67.9,96Zm-6-3,5,1.43L65.33,89,57.1,80.76l-5-1.25,1.14,4.76Z" style="fill:#fff"/><path d="M63.62,91.67a.65.65,0,0,1-.45-.19l-8.36-8.36a.63.63,0,0,1,.9-.89l8.36,8.35a.63.63,0,0,1,0,.9A.67.67,0,0,1,63.62,91.67Z" style="fill:#fff"/><path d="M179.75,190.27a.63.63,0,0,1-.63-.63v-95a.63.63,0,0,1,.63-.63.64.64,0,0,1,.64.63v95A.64.64,0,0,1,179.75,190.27Z" style="fill:#fff"/><path d="M182.1,174.9a.63.63,0,0,1-.61-.81l2-6.67a.74.74,0,0,1,.16-.27l8.47-8.46a.58.58,0,0,1,.29-.17l6.21-1.55a.63.63,0,0,1,.77.76l-1.43,6a.65.65,0,0,1-.17.3l-8.93,8.93a.63.63,0,0,1-.27.16l-6.33,1.8A.52.52,0,0,1,182.1,174.9Zm2.57-7-1.63,5.4,5.05-1.43,8.69-8.69,1.14-4.77-5,1.26Z" style="fill:#fff"/><path d="M186.38,170.61a.66.66,0,0,1-.45-.18.63.63,0,0,1,0-.9l8.36-8.36a.63.63,0,0,1,.9,0,.65.65,0,0,1,0,.9l-8.36,8.36A.64.64,0,0,1,186.38,170.61Z" style="fill:#fff"/><path d="M182.1,161.75a.66.66,0,0,1-.46-.19.64.64,0,0,1-.15-.63l2-6.67a.63.63,0,0,1,.16-.26l8.47-8.47a.66.66,0,0,1,.29-.17l6.21-1.55a.64.64,0,0,1,.6.17.62.62,0,0,1,.17.59l-1.43,6a.6.6,0,0,1-.17.3l-8.93,8.93a.63.63,0,0,1-.27.16l-6.33,1.8Zm2.57-7-1.63,5.4,5.05-1.43,8.69-8.69,1.14-4.76-5,1.25Z" style="fill:#fff"/><path d="M186.38,157.46a.67.67,0,0,1-.45-.19.63.63,0,0,1,0-.9l8.36-8.36a.64.64,0,1,1,.9.9l-8.36,8.36A.65.65,0,0,1,186.38,157.46Z" style="fill:#fff"/><path d="M182.1,148.59a.66.66,0,0,1-.46-.19.64.64,0,0,1-.15-.63l2-6.67a.63.63,0,0,1,.16-.26l8.47-8.47a.66.66,0,0,1,.29-.17l6.21-1.55a.64.64,0,0,1,.6.17.63.63,0,0,1,.17.6l-1.43,6a.6.6,0,0,1-.17.3l-8.93,8.93a.65.65,0,0,1-.27.17l-6.33,1.79Zm2.57-7L183,147l5.05-1.44,8.69-8.69,1.14-4.76-5,1.25Z" style="fill:#fff"/><path d="M186.38,144.3a.64.64,0,0,1-.45-1.09l8.36-8.35a.63.63,0,1,1,.9.89l-8.36,8.36A.61.61,0,0,1,186.38,144.3Z" style="fill:#fff"/><path d="M182.1,135.43a.66.66,0,0,1-.46-.19.63.63,0,0,1-.15-.63l2-6.67a.63.63,0,0,1,.16-.26l8.47-8.47a.56.56,0,0,1,.29-.16l6.21-1.56a.64.64,0,0,1,.6.17.63.63,0,0,1,.17.6L198,124.21a.56.56,0,0,1-.17.3l-8.93,8.94a.74.74,0,0,1-.27.16l-6.33,1.8Zm2.57-7L183,133.87l5.05-1.44,8.69-8.69,1.14-4.76-5,1.25Z" style="fill:#fff"/><path d="M186.38,131.14a.63.63,0,0,1-.45-.19.62.62,0,0,1,0-.89l8.36-8.36a.63.63,0,0,1,.9,0,.65.65,0,0,1,0,.9L186.83,131A.61.61,0,0,1,186.38,131.14Z" style="fill:#fff"/><path d="M182.1,122.27a.62.62,0,0,1-.46-.19.63.63,0,0,1-.15-.63l2-6.66a.74.74,0,0,1,.16-.27l8.47-8.47a.64.64,0,0,1,.29-.16l6.21-1.55a.63.63,0,0,1,.77.76l-1.43,6a.65.65,0,0,1-.17.3l-8.93,8.93a.74.74,0,0,1-.27.16l-6.33,1.8Zm2.57-7-1.63,5.4,5.05-1.44,8.69-8.69,1.14-4.76-5,1.26Z" style="fill:#fff"/><path d="M186.38,118a.66.66,0,0,1-.45-.18.63.63,0,0,1,0-.9l8.36-8.36a.63.63,0,0,1,.9,0,.65.65,0,0,1,0,.9l-8.36,8.36A.64.64,0,0,1,186.38,118Z" style="fill:#fff"/><path d="M182.1,109.11a.65.65,0,0,1-.46-.18.64.64,0,0,1-.15-.63l2-6.67a.74.74,0,0,1,.16-.27l8.47-8.46a.58.58,0,0,1,.29-.17l6.21-1.55a.63.63,0,0,1,.77.76l-1.43,6a.6.6,0,0,1-.17.3l-8.93,8.93a.63.63,0,0,1-.27.16l-6.33,1.8A.52.52,0,0,1,182.1,109.11Zm2.57-7-1.63,5.4,5.05-1.43,8.69-8.69,1.14-4.77-5,1.26Z" style="fill:#fff"/><path d="M186.38,104.82a.66.66,0,0,1-.45-.18.63.63,0,0,1,0-.9l8.36-8.36a.64.64,0,1,1,.9.9l-8.36,8.36A.64.64,0,0,1,186.38,104.82Z" style="fill:#fff"/><path d="M182.1,96a.66.66,0,0,1-.46-.19.64.64,0,0,1-.15-.63l2-6.67a.63.63,0,0,1,.16-.26l8.47-8.47a.66.66,0,0,1,.29-.17L198.63,78a.64.64,0,0,1,.6.17.62.62,0,0,1,.17.59l-1.43,6a.6.6,0,0,1-.17.3L188.87,94a.63.63,0,0,1-.27.16l-6.33,1.8Zm2.57-7L183,94.39,188.09,93l8.69-8.69,1.14-4.76-5,1.25Z" style="fill:#fff"/><path d="M186.38,91.67a.67.67,0,0,1-.45-.19.63.63,0,0,1,0-.9l8.36-8.35a.63.63,0,1,1,.9.89l-8.36,8.36A.65.65,0,0,1,186.38,91.67Z" style="fill:#fff"/><path d="M179.59,90h0a.63.63,0,0,1-.55-.33l-3.29-6.14a.64.64,0,0,1-.08-.3v-12a.62.62,0,0,1,.09-.32L179,65.41a.65.65,0,0,1,1.09,0l3.2,5.22a.63.63,0,0,1,.09.33V83.59a.55.55,0,0,1-.08.31l-3.2,5.75A.62.62,0,0,1,179.59,90ZM176.93,83l2.67,5,2.55-4.58V71.14L179.59,67l-2.66,4.43Z" style="fill:#fff"/><path d="M179.58,83.91a.64.64,0,0,1-.63-.64V71.46a.63.63,0,0,1,.63-.64.64.64,0,0,1,.64.64V83.27A.64.64,0,0,1,179.58,83.91Z" style="fill:#fff"/><path d="M177.41,174.9a.47.47,0,0,1-.17,0l-6.33-1.8a.57.57,0,0,1-.27-.16L161.7,164a.75.75,0,0,1-.17-.3l-1.42-6a.64.64,0,0,1,.17-.6.63.63,0,0,1,.6-.16l6.2,1.55a.6.6,0,0,1,.3.17l8.46,8.46a.63.63,0,0,1,.16.27l2,6.67a.64.64,0,0,1-.61.81Zm-6-3,5.05,1.43-1.64-5.4-8.23-8.23-5-1.26,1.14,4.77Z" style="fill:#fff"/><path d="M173.12,170.61a.62.62,0,0,1-.44-.18l-8.36-8.36a.64.64,0,0,1,.9-.9l8.35,8.36a.63.63,0,0,1,0,.9A.63.63,0,0,1,173.12,170.61Z" style="fill:#fff"/><path d="M177.41,161.75a.47.47,0,0,1-.17,0l-6.33-1.8a.57.57,0,0,1-.27-.16l-8.94-8.93a.69.69,0,0,1-.17-.3l-1.42-6a.62.62,0,0,1,.17-.59.63.63,0,0,1,.6-.17l6.2,1.55a.69.69,0,0,1,.3.17l8.46,8.47a.54.54,0,0,1,.16.26l2,6.67a.62.62,0,0,1-.16.63A.64.64,0,0,1,177.41,161.75Zm-6-3,5.05,1.43-1.64-5.4-8.23-8.23-5-1.25,1.14,4.76Z" style="fill:#fff"/><path d="M173.12,157.46a.63.63,0,0,1-.44-.19l-8.36-8.36a.63.63,0,0,1,0-.9.65.65,0,0,1,.9,0l8.35,8.36a.64.64,0,0,1-.45,1.09Z" style="fill:#fff"/><path d="M177.41,148.59a.47.47,0,0,1-.17,0l-6.33-1.79a.59.59,0,0,1-.27-.17l-8.94-8.93a.69.69,0,0,1-.17-.3l-1.42-6a.63.63,0,0,1,.17-.6.63.63,0,0,1,.6-.17l6.2,1.55a.69.69,0,0,1,.3.17l8.46,8.47a.54.54,0,0,1,.16.26l2,6.67a.62.62,0,0,1-.16.63A.64.64,0,0,1,177.41,148.59Zm-6-3,5.05,1.44-1.64-5.41-8.23-8.23-5-1.25,1.14,4.76Z" style="fill:#fff"/><path d="M173.12,144.3a.59.59,0,0,1-.44-.19l-8.36-8.36a.62.62,0,0,1,0-.89.63.63,0,0,1,.9,0l8.35,8.35a.63.63,0,0,1,0,.9A.6.6,0,0,1,173.12,144.3Z" style="fill:#fff"/><path d="M177.41,135.43l-.17,0-6.33-1.8a.67.67,0,0,1-.27-.16l-8.94-8.94a.64.64,0,0,1-.17-.3l-1.42-5.95a.64.64,0,0,1,.77-.77l6.2,1.56a.59.59,0,0,1,.3.16l8.46,8.47a.54.54,0,0,1,.16.26l2,6.67a.62.62,0,0,1-.16.63A.64.64,0,0,1,177.41,135.43Zm-6-3,5.05,1.44-1.64-5.41-8.23-8.23-5-1.25,1.14,4.76Z" style="fill:#fff"/><path d="M173.12,131.14a.59.59,0,0,1-.44-.19l-8.36-8.35a.64.64,0,1,1,.9-.9l8.35,8.36a.62.62,0,0,1,0,.89A.6.6,0,0,1,173.12,131.14Z" style="fill:#fff"/><path d="M177.41,122.27l-.17,0-6.33-1.8a.67.67,0,0,1-.27-.16l-8.94-8.93a.75.75,0,0,1-.17-.3l-1.42-6a.63.63,0,0,1,.77-.76l6.2,1.55a.67.67,0,0,1,.3.16l8.46,8.47a.63.63,0,0,1,.16.27l2,6.66a.61.61,0,0,1-.16.63A.6.6,0,0,1,177.41,122.27Zm-6-3,5.05,1.44-1.64-5.4-8.23-8.23-5-1.26,1.14,4.76Z" style="fill:#fff"/><path d="M173.12,118a.62.62,0,0,1-.44-.18l-8.36-8.36a.64.64,0,1,1,.9-.9l8.35,8.36a.63.63,0,0,1,0,.9A.63.63,0,0,1,173.12,118Z" style="fill:#fff"/><path d="M177.41,109.11a.47.47,0,0,1-.17,0l-6.33-1.8a.57.57,0,0,1-.27-.16L161.7,98.2a.69.69,0,0,1-.17-.3l-1.42-6a.64.64,0,0,1,.17-.6.63.63,0,0,1,.6-.16l6.2,1.55a.6.6,0,0,1,.3.17l8.46,8.46a.63.63,0,0,1,.16.27l2,6.67a.63.63,0,0,1-.61.81Zm-6-3,5.05,1.43-1.64-5.4-8.23-8.23-5-1.26,1.14,4.77Z" style="fill:#fff"/><path d="M173.12,104.82a.62.62,0,0,1-.44-.18l-8.36-8.36a.63.63,0,0,1,0-.9.65.65,0,0,1,.9,0l8.35,8.36a.63.63,0,0,1,0,.9A.63.63,0,0,1,173.12,104.82Z" style="fill:#fff"/><path d="M177.41,96a.47.47,0,0,1-.17,0l-6.33-1.8a.57.57,0,0,1-.27-.16L161.7,85a.69.69,0,0,1-.17-.3l-1.42-6a.62.62,0,0,1,.17-.59.63.63,0,0,1,.6-.17l6.2,1.55a.69.69,0,0,1,.3.17l8.46,8.47a.54.54,0,0,1,.16.26l2,6.67a.62.62,0,0,1-.16.63A.64.64,0,0,1,177.41,96Zm-6-3,5.05,1.43L174.83,89l-8.23-8.23-5-1.25,1.14,4.76Z" style="fill:#fff"/><path d="M173.12,91.67a.63.63,0,0,1-.44-.19l-8.36-8.36a.62.62,0,0,1,0-.89.63.63,0,0,1,.9,0l8.35,8.35a.64.64,0,0,1-.45,1.09Z" style="fill:#fff"/></g></svg>