<svg xmlns="http://www.w3.org/2000/svg" viewBox="0 0 250 250"><title>RALF_IconSVGs</title><g id="Body"><path d="M209.41,147.77l-16.28-24.25h8.31a1.33,1.33,0,0,0,1.19-.72,1.36,1.36,0,0,0-.06-1.39l-14.94-22.6h6.3a1.36,1.36,0,0,0,1.16-2.06L179.77,71.26a1.37,1.37,0,0,0-2.33,0L162.12,96.75a1.37,1.37,0,0,0,0,1.37,1.35,1.35,0,0,0,1.18.69h6.3l-12.51,18.92L138.77,90h12.75a1.35,1.35,0,0,0,1.17-2L126.14,43.82a1.34,1.34,0,0,0-1.16-.66,1.37,1.37,0,0,0-1.17.66L97.27,88a1.35,1.35,0,0,0,1.16,2h12.76L92.91,117.7,80.42,98.81h6.3a1.35,1.35,0,0,0,1.18-.69,1.37,1.37,0,0,0,0-1.37L72.56,71.26a1.37,1.37,0,0,0-2.33,0L54.91,96.75a1.37,1.37,0,0,0,0,1.37,1.35,1.35,0,0,0,1.18.69h6.3l-14.94,22.6a1.36,1.36,0,0,0-.06,1.39,1.33,1.33,0,0,0,1.19.72h8.31L40.59,147.77a1.35,1.35,0,0,0,1.12,2.12H67.58a67.34,67.34,0,0,1-1.15,8.19c-.18.49-.46,1.09-.74,1.67-.86,1.84-1.61,3.43-.44,4.39a.69.69,0,0,1,.11.13c.81.95,2,2,6,2s5.22-1,6-2l.09-.12c1.19-1,.45-2.56-.42-4.4-.28-.58-.56-1.18-.74-1.67a67.34,67.34,0,0,1-1.15-8.19h15L72.43,176.4a1.36,1.36,0,0,0-.07,1.4,1.37,1.37,0,0,0,1.2.72h45.9C119,183.21,118,192,117.3,194c-.32.89-.82,2-1.3,3-1.43,3-2.47,5.23-1,6.44a2.58,2.58,0,0,1,.29.32c1.25,1.48,3.14,3.06,9.69,3.06s8.43-1.58,9.69-3.06a2,2,0,0,1,.29-.32c1.47-1.21.43-3.4-1-6.44-.49-1-1-2.09-1.31-3-.73-2-1.7-10.83-2.15-15.52h45.9a1.36,1.36,0,0,0,1.13-2.12l-17.8-26.51h15.06a67.34,67.34,0,0,1-1.15,8.19c-.18.49-.46,1.09-.74,1.67-.87,1.84-1.61,3.43-.44,4.39l.11.13c.81.95,2,2,6,2s5.22-1,6-2l.09-.12c1.19-1,.45-2.56-.42-4.4-.28-.58-.56-1.18-.74-1.67a67.34,67.34,0,0,1-1.15-8.19h25.87a1.35,1.35,0,0,0,1.12-2.12ZM73.81,159c.22.6.53,1.26.83,1.89s.56,1.19.71,1.62c-.32.38-.87,1-3.95,1s-3.64-.62-4-1c.15-.43.48-1.12.71-1.62s.61-1.29.83-1.89c.52-1.44,1.08-6.56,1.33-9.12h2.17C72.74,152.45,73.29,157.57,73.81,159ZM44.26,147.17l16.28-24.25a1.36,1.36,0,0,0-1.13-2.12H51.09L66,98.2a1.36,1.36,0,0,0-1.14-2.11H58.47L71.39,74.6,84.32,96.09H77.9a1.36,1.36,0,0,0-1.14,2.11l14.52,22-.42.64H83.38a1.36,1.36,0,0,0-1.13,2.12l3.63,5.41-1.59,2.4a1.36,1.36,0,0,0,1.14,2.11h3.48l6.38,9.51-3.23,4.82Zm44.8-23.65-1.56,2.36-1.58-2.36Zm3.12,9.32h9.5l-4.75,7.07ZM130.1,195c.36,1,.89,2.12,1.4,3.2a21.77,21.77,0,0,1,1.43,3.47c-.12.13-.23.25-.33.38-.67.79-1.78,2.1-7.62,2.1s-7-1.31-7.62-2.1l-.33-.38a21.77,21.77,0,0,1,1.43-3.47c.51-1.08,1-2.19,1.4-3.2.93-2.56,2-12.74,2.33-16.45h5.58C128.12,182.23,129.17,192.41,130.1,195Zm43.75-19.17H76.11l17.65-26.3a1.29,1.29,0,0,0,.19-.21l4.13-6.15a1.47,1.47,0,0,0,.1-.22l7.17-10.68a1.36,1.36,0,0,0-1.13-2.12H88l.68-1a2.14,2.14,0,0,0,.1-.22l3.81-5.76a1.92,1.92,0,0,0,.18-.22l1.3-2a.81.81,0,0,0,.1-.21l20.69-31.3a1.38,1.38,0,0,0,.06-1.4,1.36,1.36,0,0,0-1.19-.71H100.83L125,47.16l24.14,40.16H136.24a1.34,1.34,0,0,0-1.19.71,1.36,1.36,0,0,0,.06,1.4l26.22,39.67h0l.68,1H145.73a1.35,1.35,0,0,0-1.12,2.12ZM160.9,123.52h3.18l-1.61,2.39Zm-3.08,9.32L153.05,140l-4.77-7.11ZM181,159c.22.6.53,1.26.83,1.9s.56,1.18.71,1.61c-.32.38-.87,1-3.95,1s-3.64-.62-4-1c.15-.43.48-1.12.71-1.62s.61-1.29.83-1.89c.52-1.44,1.07-6.56,1.33-9.12h2.17C180,152.45,180.5,157.57,181,159ZM157.9,147.17l-3.21-4.79,6.4-9.54h3.44a1.32,1.32,0,0,0,1-.42,1.66,1.66,0,0,0,.22-.3,1.36,1.36,0,0,0-.07-1.39l-1.56-2.37,3.65-5.44a1.36,1.36,0,0,0-1.13-2.12H159.1l-.4-.6,14.54-22a1.36,1.36,0,0,0-1.14-2.11h-6.42L178.61,74.6l12.92,21.49h-6.42A1.36,1.36,0,0,0,184,98.2l14.94,22.6h-8.32a1.36,1.36,0,0,0-1.13,2.12l16.28,24.25Z" style="fill:#fff"/></g></svg>