<svg xmlns="http://www.w3.org/2000/svg" viewBox="0 0 250 250"><title>RALF_IconSVGs</title><g id="Body"><path d="M106.06,168.4a1.24,1.24,0,0,1-.33,0c-1.47-.38-2.88-3.16-4.17-8.27-2-7.7-1.4-20.15-.76-34.56.28-6.13.56-12.48.67-18.87.33-20-1-34-1.86-37-1.36.49-4.72,2.87-7.24,5.62A45.56,45.56,0,0,0,84.05,90.3c-3.1,9.73-2.52,22.58-2.27,28.07.27,6,2,18.91,4.61,23.42l2.72,4.79a1.34,1.34,0,1,1-2.33,1.33l-2.72-4.79c-3-5.19-4.69-18.6-5-24.63-.26-5.63-.86-18.82,2.39-29a47.83,47.83,0,0,1,8.9-16c1.87-2,6.87-6.53,9.56-6.59a2,2,0,0,1,1.52.57c1.93,1.93,3,22.26,2.68,39.29-.11,6.44-.39,12.8-.67,19-.63,14.2-1.18,26.46.68,33.78,1.28,5.07,2.31,6.25,2.51,6.43a1.34,1.34,0,0,1-.61,2.54Zm.64-2.51Zm-.3-.13Zm0,0Zm0,0h0Zm-7-96.61Z" style="fill:#fff"/><path d="M125,48.13c17,0,33.86,1,50.34,26.83s9.26,59.37,5.58,72.58-9.4,32.68-15.25,38.26S152.82,201.87,125,201.87,90.19,191.38,84.33,185.8s-11.57-25.06-15.25-38.26S58.19,100.83,74.66,75,108,48.13,125,48.13m0-2.68c-8.91,0-17.63.3-26.38,3.91-9.9,4.09-18.48,12-26.22,24.16C65,85.14,61.37,99.44,61.63,116a130.09,130.09,0,0,0,4.86,32.22c8.1,29.08,12.63,36.28,16,39.48.58.56,1.2,1.19,1.85,1.85,5.83,6,14.65,15,40.67,15s34.84-9,40.67-15c.65-.66,1.27-1.29,1.85-1.85,3.36-3.2,7.89-10.4,16-39.48A130.09,130.09,0,0,0,188.37,116c.26-16.6-3.37-30.9-10.77-42.52-7.74-12.17-16.32-20.07-26.22-24.16-8.75-3.61-17.47-3.91-26.38-3.91Z" style="fill:#fff"/><path d="M125,56.31c16.09,0,22.81,3.63,25.73,5.22a45.12,45.12,0,0,1,4.64,2.85,3.09,3.09,0,0,1,2.06-1.06,2.16,2.16,0,0,1,1.39.53,91.07,91.07,0,0,1,6.89,6.63c1.66,1.79-.33,4-.33,4s6.23,8.69,9.09,17.24a66.6,66.6,0,0,1,3.05,17.24h.13c.57,0,2.8.1,2.92,1.66.13,1.79,0,8.28,0,10.07s-2.79,2.33-2.79,2.33-1.06,11.2-4.77,19.29-11.47,17.77-11.47,17.77,2.18,3.18.59,4.91a94.54,94.54,0,0,1-7.22,6.63,2.35,2.35,0,0,1-1.45.45,7.25,7.25,0,0,1-3.13-1S142,178.49,125,178.49s-25.33-7.42-25.33-7.42a7.25,7.25,0,0,1-3.13,1,2.35,2.35,0,0,1-1.45-.45A94.54,94.54,0,0,1,87.87,165c-1.59-1.73.59-4.91.59-4.91S80.71,150.38,77,142.29,72.22,123,72.22,123s-2.79-.53-2.79-2.33-.13-8.28,0-10.07c.12-1.56,2.35-1.66,2.92-1.66h.13a66.6,66.6,0,0,1,3-17.24c2.86-8.55,9.09-17.24,9.09-17.24s-2-2.19-.33-4a91.07,91.07,0,0,1,6.89-6.63,2.16,2.16,0,0,1,1.39-.53,3.09,3.09,0,0,1,2.06,1.06,45.12,45.12,0,0,1,4.64-2.85c2.92-1.59,9.64-5.22,25.73-5.22m0-2.69c-16.83,0-24,3.89-27,5.56-1.37.74-2.48,1.42-3.31,1.94a5,5,0,0,0-2.11-.49,4.85,4.85,0,0,0-3.08,1.14,96.09,96.09,0,0,0-7.17,6.89,5.19,5.19,0,0,0-.9,5.71A75.69,75.69,0,0,0,73,90.85a68.44,68.44,0,0,0-3.06,15.77,4.25,4.25,0,0,0-3.17,3.78c-.1,1.31-.07,4.41,0,8,0,1,0,1.78,0,2.25a4.85,4.85,0,0,0,3,4.31c.46,3.55,1.79,11.87,4.8,18.43s8.4,13.88,10.72,16.92c-.89,2.09-1.09,4.59.62,6.46a96.28,96.28,0,0,0,7.54,6.91,5,5,0,0,0,3.11,1,8.35,8.35,0,0,0,2.8-.55c3.21,2.22,11.72,7,25.66,7s22.45-4.78,25.66-7a8.35,8.35,0,0,0,2.8.55,5,5,0,0,0,3.11-1,98.41,98.41,0,0,0,7.53-6.91c1.18-1.27,1.89-3.62.64-6.48,2.33-3,7.71-10.38,10.71-16.9s4.34-14.88,4.8-18.43a4.85,4.85,0,0,0,3-4.31c0-.47,0-1.28,0-2.25,0-3.61.07-6.71,0-8a4.25,4.25,0,0,0-3.17-3.78A68.44,68.44,0,0,0,177,90.85a75.19,75.19,0,0,0-8.44-16.48,5.17,5.17,0,0,0-.89-5.71,94.19,94.19,0,0,0-7.17-6.89,4.85,4.85,0,0,0-3.07-1.14,5,5,0,0,0-2.12.49c-.83-.53-1.94-1.2-3.31-1.94-3-1.67-10.18-5.56-27-5.56Z" style="fill:#fff"/><path d="M140.16,174.82c-5.29,0-6.45-4.64-8.95-14.64-2.39-9.59-1.28-67.24-.91-86.18.06-2.85.09-4.71.09-5.22a5.4,5.4,0,0,0-10.78,0c0,.51,0,2.37.09,5.22.37,18.94,1.48,76.59-.91,86.18-2.54,10.13-3.71,14.76-9.16,14.64a1.35,1.35,0,0,1-1.31-1.37,1.32,1.32,0,0,1,1.37-1.32c2.83,0,3.77-1.7,6.49-12.6,1.54-6.13,1.82-34.89.84-85.48-.06-2.88-.1-4.75-.1-5.27a8.09,8.09,0,0,1,16.16,0c0,.52,0,2.39-.1,5.27-1,50.59-.7,79.35.84,85.48,2.72,10.9,3.64,12.65,6.49,12.6a1.32,1.32,0,0,1,1.37,1.32,1.35,1.35,0,0,1-1.31,1.37Z" style="fill:#fff"/><path d="M143.94,168.4a1.34,1.34,0,0,1-.61-2.54c.2-.18,1.23-1.36,2.51-6.43,1.86-7.32,1.31-19.58.68-33.78-.28-6.15-.56-12.51-.67-19-.28-17,.75-37.36,2.68-39.29a2.05,2.05,0,0,1,1.52-.57c2.69.06,7.69,4.55,9.56,6.59a47.83,47.83,0,0,1,8.9,16c3.25,10.19,2.65,23.38,2.39,29-.27,6-2,19.44-5,24.63l-2.72,4.79a1.34,1.34,0,0,1-2.33-1.33l2.72-4.78c2.57-4.52,4.34-17.46,4.61-23.43.25-5.49.83-18.34-2.27-28.07a45.63,45.63,0,0,0-8.32-15.06c-2.52-2.75-5.88-5.13-7.24-5.62-.81,3-2.19,17-1.86,37,.11,6.39.39,12.74.67,18.87.64,14.41,1.2,26.86-.76,34.56-1.29,5.11-2.7,7.89-4.17,8.27A1.24,1.24,0,0,1,143.94,168.4Zm-.64-2.51Zm.3-.13Zm0,0Zm0,0h0Zm6.94-96.61" style="fill:#fff"/></g></svg>