<svg id="Layer_1" data-name="Layer 1" xmlns="http://www.w3.org/2000/svg" viewBox="0 0 250 250"><title>Livestock</title><path d="M221.47,97.78a4,4,0,0,0-3.09-3.23,145.24,145.24,0,0,0-23.9-3,30,30,0,0,0,6.18-12.48c2.37-10.39-.85-21.46-9.09-31.17a4,4,0,0,0-7,2.22C183,68.69,174.06,71.58,168.51,72.74c-8.93-3.19-24.27-5-42.48-5h-1.46c-18.21,0-33.56,1.85-42.48,5-5.82-1.2-14.44-4-16.09-22.61a4,4,0,0,0-7-2.22c-8.23,9.71-11.46,20.78-9.08,31.17a29.86,29.86,0,0,0,6.18,12.48,145,145,0,0,0-23.9,3,4,4,0,0,0-3.1,3.23c-1.77,10.47.24,18.76,6,24.63,7.42,7.6,19.26,9,26.81,9,1.76,0,3.29-.07,4.48-.16C68,140,71,148.31,73.74,155.87c2.33,6.41,4.53,12.46,5.1,17C83.72,211.92,105.78,212,125.28,212h.11c19.49,0,41.49-.13,46.37-39.15.57-4.52,2.77-10.57,5.1-17,2.75-7.56,5.78-15.92,7.37-24.65,1.18.09,2.71.16,4.48.16,7.55,0,19.38-1.37,26.8-9C221.24,116.54,223.25,108.25,221.47,97.78ZM40.77,116.87c-3.41-3.5-4.81-8.57-4.18-15.1a132.52,132.52,0,0,1,26.88-2.33c-.34,6.27.57,13.28,1.28,18.7.26,2,.49,3.76.62,5.21C58.94,123.78,46.93,123.18,40.77,116.87Zm84.51,80.06c4.06,0,8,2.58,10.89,6.9-3.4.23-7,.23-10.87.23s-7.48,0-10.87-.23C117.33,199.51,121.22,196.93,125.28,196.93Zm52-73.6c-.75,10.27-4.53,20.66-7.86,29.83-2.6,7.13-4.84,13.29-5.52,18.71-2.56,20.54-9.42,28-19.27,30.66a28.61,28.61,0,0,0-6.07-8.09c5.28-2.21,9.21-5.81,11.06-10.44a4,4,0,0,0-7.37-2.95c-1.92,4.81-8.57,7.92-16.93,7.92s-15-3.11-16.94-7.92A4,4,0,1,0,101,184c1.86,4.65,5.81,8.25,11.12,10.46a29,29,0,0,0-6.11,8.07c-9.86-2.68-16.72-10.1-19.29-30.66-.67-5.42-2.92-11.58-5.51-18.71-3.33-9.17-7.12-19.56-7.86-29.83-.12-1.65-.4-3.79-.72-6.23-.82-6.23-1.94-14.76-.85-20.73A4,4,0,0,0,69.48,92a21.47,21.47,0,0,1-11.8-14.72,24.77,24.77,0,0,1,2.23-16.44c4.85,16.59,16.8,18.91,21.75,19.87a3.92,3.92,0,0,0,2.22-.2c7.78-3.07,23.14-4.9,41.09-4.9h.66c17.94,0,33.3,1.83,41.09,4.9a3.89,3.89,0,0,0,2.21.2c5-1,16.91-3.28,21.76-19.87a24.83,24.83,0,0,1,2.23,16.44A21.47,21.47,0,0,1,181.12,92a4,4,0,0,0-2.3,4.34c1.1,6,0,14.49-.84,20.72C177.66,119.53,177.38,121.68,177.26,123.33Zm32.58-6.48c-6.62,6.81-19.25,6.82-24.61,6.48.13-1.45.36-3.21.62-5.21.71-5.41,1.62-12.41,1.27-18.68A132.6,132.6,0,0,1,214,101.77C214.63,108.29,213.24,113.36,209.84,116.85Z" style="fill:#fff"/><path d="M97.53,120.93a6.91,6.91,0,0,0-9.5,1.3,4,4,0,0,0,4.21,6.29,4,4,0,0,0,2.31,3.13,4,4,0,0,0,5.25-2,7.22,7.22,0,0,0,.56-4A7.1,7.1,0,0,0,97.53,120.93Z" style="fill:#fff"/><path d="M158.24,119.69a6.93,6.93,0,0,0-5.17,1.24,7.18,7.18,0,0,0-2.27,8.74,4,4,0,0,0,7.55-1.15,4,4,0,0,0,4.21-6.29A6.93,6.93,0,0,0,158.24,119.69Z" style="fill:#fff"/></svg>