<svg id="_ÎÓÈ_1" data-name="—ÎÓÈ_1" xmlns="http://www.w3.org/2000/svg" viewBox="0 0 305.15 324.09"><title>WaterDrop</title><path d="M147.42,61c13.5,14.62,61.09,69.18,70,120.19,5.45,30.72-1,59.78-17.74,79.73a67,67,0,0,1-52.08,24.44h-.38a67,67,0,0,1-52.08-24.44c-16.72-19.95-23.19-49-17.73-79.75,8.91-50.95,56.51-105.54,70-120.17m0-7.28S83.25,118.8,72.49,180.27c-11,61.8,24.8,110,74.74,110h.38c49.95,0,85.71-48.25,74.74-110C211.6,118.8,147.42,53.68,147.42,53.68Z" style="fill:#fff"/><path d="M95.6,173.41a112.43,112.43,0,0,0,1.74,26.44c3.87,20,13.85,36.93,30.51,51.79.33.3,1.22,1.17,2,1.9s1.3,1.66.91,2.56-2,2-4.61,2c-2.9,0-10.69-1.39-20.31-14.24l-.06-.08c-1.09-1.46-1.37-1.88-1.41-1.94-10.31-16.09-14-35.05-11.06-56.37a118.29,118.29,0,0,1,2.34-12.08m12.67-43.77c-18.17,31.62-32.34,77.17-8.16,114.91.39.63,1.54,2.15,1.68,2.32,9.06,12.1,17.91,16.25,24.31,16.25,8.54,0,12.74-7.37,7.28-13.07-.17-.17-1.59-1.6-2.2-2.14C99.84,220,93,184.58,108.27,129.64Z" style="fill:#fff"/></svg>